<svg width="450" height="384" viewBox="0 0 450 384" fill="none" xmlns="http://www.w3.org/2000/svg">
<g clip-path="url(#clip0)">
<path d="M268.387 161.602L264.047 160.31L225.196 234.721L229.537 236.011L268.387 161.602ZM227.367 235.366L266.217 160.955L227.367 235.366ZM231.268 233.309L120.895 192.163L118.775 195.375L229.149 236.52L231.268 233.309ZM230.207 234.914L119.834 193.769L230.207 234.914ZM315.669 135.452L208.962 91.4352L206.685 94.521L313.393 138.539L315.669 135.452ZM207.823 92.9781L314.53 136.995L207.823 92.9781ZM315.689 135.495L311.454 133.891L291.215 166.144L295.449 167.747L315.689 135.495ZM293.333 166.946L313.571 134.693L293.333 166.946ZM315.614 135.344L208.906 91.3269L206.629 94.4127L313.338 138.43L315.614 135.344ZM314.475 136.887L207.767 92.869L314.475 136.887ZM286.865 105.311L283.028 103.813L263.047 132.105L266.884 133.602L286.865 105.311ZM264.965 132.853L284.946 104.562L264.965 132.853ZM210.271 135.499L206.056 133.99L198.08 146.683L202.295 148.192L210.271 135.499ZM208.163 134.745L200.188 147.437L208.163 134.745ZM149.507 156.497C149.575 157.43 148.989 158.131 148.486 158.554C147.541 159.348 146.099 159.838 144.527 159.899C141.634 160.006 139.182 158.657 139.049 156.883C138.979 155.949 139.566 155.249 140.07 154.825C141.014 154.032 142.456 153.542 144.027 153.481C144.139 153.477 144.25 153.475 144.36 153.475C147.101 153.475 149.378 154.791 149.507 156.497ZM144.767 163.415C147.568 163.307 150.188 162.393 151.957 160.907C153.505 159.606 154.289 157.97 154.165 156.299C153.888 152.596 149.231 149.746 143.788 149.964C140.988 150.072 138.367 150.987 136.598 152.472C135.051 153.773 134.266 155.409 134.391 157.08C134.656 160.654 139.002 163.426 144.2 163.426C144.388 163.426 144.577 163.423 144.767 163.415ZM143.908 151.722C139.734 151.884 136.516 154.238 136.719 156.982C136.924 159.725 140.474 161.818 144.647 161.656C148.821 161.495 152.039 159.141 151.835 156.398C151.631 153.655 148.082 151.562 143.908 151.722ZM257.127 228.016C257.181 228.745 256.69 229.32 256.27 229.674C255.325 230.467 253.759 230.98 252.08 231.045C249.213 231.15 246.702 229.946 246.587 228.406C246.532 227.678 247.023 227.103 247.444 226.749C248.388 225.956 249.955 225.443 251.635 225.378C251.757 225.374 251.878 225.371 251.999 225.371C254.706 225.371 257.017 226.542 257.127 228.016ZM252.319 234.562C255.253 234.448 257.958 233.524 259.74 232.028C261.172 230.825 261.898 229.33 261.786 227.819C261.526 224.323 256.857 221.647 251.396 221.861C248.461 221.974 245.755 222.899 243.973 224.396C242.543 225.598 241.816 227.092 241.929 228.603C242.18 231.971 246.509 234.573 251.712 234.573C251.913 234.573 252.114 234.57 252.319 234.562ZM251.515 223.619C247.318 223.781 244.069 225.968 244.258 228.505C244.446 231.041 248.002 232.965 252.199 232.803C256.396 232.641 259.645 230.455 259.456 227.918C259.267 225.382 255.712 223.457 251.515 223.619ZM227.689 198.122C227.743 198.85 227.253 199.425 226.831 199.778C225.887 200.572 224.321 201.085 222.642 201.149C219.778 201.253 217.264 200.051 217.149 198.511C217.095 197.782 217.586 197.207 218.007 196.853C218.951 196.06 220.517 195.548 222.196 195.483C222.319 195.478 222.44 195.476 222.561 195.476C225.269 195.476 227.579 196.647 227.689 198.122ZM222.88 204.666C225.814 204.554 228.52 203.629 230.303 202.132C231.734 200.93 232.46 199.435 232.348 197.924C232.087 194.427 227.415 191.747 221.958 191.966C219.023 192.078 216.318 193.002 214.536 194.5C213.105 195.703 212.378 197.197 212.491 198.708C212.742 202.075 217.071 204.678 222.274 204.678C222.475 204.678 222.676 204.674 222.88 204.666ZM222.078 193.724C217.881 193.886 214.631 196.073 214.82 198.61C215.008 201.146 218.564 203.07 222.762 202.908C226.957 202.746 230.207 200.559 230.018 198.023C229.83 195.487 226.274 193.562 222.078 193.724ZM202.843 195.083C202.896 195.811 202.405 196.386 201.985 196.739C201.042 197.534 199.474 198.046 197.795 198.11C194.92 198.213 192.416 197.013 192.302 195.472C192.248 194.743 192.739 194.168 193.16 193.815C194.104 193.022 195.67 192.509 197.349 192.445C197.472 192.439 197.593 192.437 197.714 192.437C200.422 192.437 202.733 193.608 202.843 195.083ZM198.033 201.628C200.969 201.514 203.674 200.59 205.456 199.093C206.887 197.891 207.613 196.396 207.5 194.886C207.24 191.389 202.583 188.711 197.112 188.927C194.177 189.04 191.47 189.964 189.688 191.461C188.258 192.664 187.531 194.158 187.644 195.669C187.895 199.037 192.224 201.639 197.428 201.639C197.628 201.639 197.83 201.635 198.033 201.628ZM197.23 190.685C193.034 190.847 189.784 193.035 189.974 195.571C190.162 198.107 193.717 200.031 197.914 199.869C202.11 199.707 205.36 197.52 205.171 194.984C204.982 192.449 201.428 190.523 197.23 190.685ZM175.003 189.963C175.056 190.692 174.567 191.267 174.145 191.621C173.201 192.414 171.634 192.927 169.956 192.992C167.092 193.101 164.578 191.893 164.463 190.353C164.409 189.624 164.899 189.05 165.319 188.695C166.265 187.903 167.83 187.39 169.51 187.325C169.631 187.32 169.753 187.318 169.873 187.318C172.581 187.318 174.893 188.489 175.003 189.963ZM170.194 196.509C173.129 196.395 175.835 195.472 177.616 193.973C179.048 192.77 179.774 191.277 179.661 189.766C179.401 186.27 174.726 183.595 169.272 183.808C166.337 183.921 163.63 184.845 161.848 186.343C160.418 187.545 159.692 189.04 159.805 190.55C160.055 193.917 164.387 196.52 169.591 196.52C169.79 196.52 169.992 196.517 170.194 196.509ZM169.392 185.566C165.194 185.728 161.946 187.916 162.134 190.451C162.323 192.988 165.878 194.912 170.075 194.75C174.272 194.588 177.52 192.401 177.332 189.865C177.143 187.328 173.588 185.405 169.392 185.566ZM295.441 170.382C295.495 171.111 295.006 171.685 294.583 172.039C293.639 172.832 292.073 173.345 290.394 173.41C287.528 173.524 285.016 172.312 284.901 170.771C284.848 170.042 285.338 169.468 285.759 169.114C286.703 168.32 288.27 167.808 289.949 167.744C290.071 167.738 290.192 167.736 290.312 167.736C293.021 167.736 295.331 168.906 295.441 170.382ZM290.632 176.927C293.566 176.814 296.274 175.89 298.055 174.393C299.487 173.19 300.211 171.696 300.1 170.184C299.839 166.688 295.173 164.013 289.711 164.226C286.775 164.34 284.071 165.264 282.289 166.761C280.857 167.963 280.13 169.458 280.244 170.968C280.493 174.335 284.824 176.938 290.026 176.938C290.227 176.938 290.429 176.935 290.632 176.927ZM289.83 165.985C285.632 166.147 282.384 168.333 282.572 170.87C282.761 173.405 286.316 175.331 290.513 175.168C294.71 175.007 297.958 172.819 297.77 170.283C297.581 167.747 294.026 165.823 289.83 165.985ZM266.392 138.729C266.446 139.457 265.955 140.032 265.535 140.386C264.59 141.179 263.024 141.692 261.344 141.756C258.486 141.866 255.965 140.658 255.851 139.117C255.798 138.389 256.288 137.815 256.708 137.461C257.653 136.667 259.22 136.154 260.899 136.09C261.022 136.084 261.141 136.082 261.262 136.082C263.971 136.082 266.282 137.253 266.392 138.729ZM261.583 145.274C264.517 145.16 267.223 144.236 269.005 142.739C270.436 141.536 271.162 140.042 271.05 138.53C270.789 135.034 266.136 132.366 260.66 132.572C257.726 132.686 255.02 133.61 253.238 135.107C251.807 136.309 251.08 137.804 251.194 139.315C251.443 142.681 255.774 145.285 260.977 145.285C261.178 145.285 261.379 145.28 261.583 145.274ZM260.779 134.331C256.584 134.493 253.334 136.68 253.523 139.216C253.711 141.752 257.267 143.677 261.463 143.515C265.66 143.353 268.91 141.165 268.72 138.63C268.533 136.094 264.977 134.169 260.779 134.331ZM239.233 132.203C239.287 132.932 238.797 133.506 238.376 133.86C237.432 134.654 235.865 135.166 234.186 135.23C231.327 135.336 228.808 134.133 228.693 132.592C228.64 131.863 229.13 131.289 229.55 130.935C230.494 130.142 232.061 129.629 233.741 129.564C233.863 129.559 233.983 129.557 234.104 129.557C236.812 129.557 239.124 130.728 239.233 132.203ZM234.425 138.748C237.359 138.635 240.064 137.71 241.847 136.213C243.277 135.011 244.004 133.516 243.891 132.006C243.632 128.509 238.964 125.837 233.502 126.047C230.567 126.16 227.862 127.084 226.079 128.582C224.649 129.784 223.923 131.278 224.035 132.79C224.285 136.157 228.615 138.76 233.82 138.76C234.021 138.76 234.221 138.755 234.425 138.748ZM233.621 127.805C229.425 127.967 226.174 130.155 226.364 132.691C226.553 135.227 230.107 137.151 234.305 136.989C238.501 136.828 241.752 134.641 241.562 132.104C241.374 129.568 237.819 127.644 233.621 127.805ZM211.495 127.904C213.124 128.02 214.58 128.561 215.393 129.35C215.757 129.703 216.16 130.274 216.013 130.99C215.684 132.58 212.96 133.749 210.05 133.538C208.423 133.422 206.967 132.882 206.153 132.092C205.789 131.739 205.385 131.168 205.534 130.452C205.836 128.986 208.182 127.879 210.823 127.879C211.045 127.879 211.27 127.887 211.495 127.904ZM220.622 131.532C220.937 130.005 220.388 128.462 219.077 127.189C217.466 125.624 214.863 124.607 211.937 124.398C206.479 124.003 201.642 126.428 200.923 129.91C200.608 131.437 201.157 132.98 202.468 134.254C204.081 135.818 206.683 136.835 209.609 137.045C209.998 137.073 210.382 137.086 210.762 137.086C215.734 137.086 219.955 134.767 220.622 131.532ZM211.717 126.15C207.55 125.852 203.749 127.656 203.229 130.181C202.708 132.705 205.663 134.994 209.83 135.292C213.997 135.591 217.795 133.786 218.317 131.261C218.839 128.737 215.884 126.448 211.717 126.15ZM180.767 97.9747V97.9754C180.822 98.705 180.328 99.2818 179.906 99.6366C178.953 100.437 177.371 100.955 175.672 101.02C172.795 101.137 170.248 99.917 170.131 98.3679C170.078 97.6383 170.57 97.0615 170.993 96.7067C171.945 95.9057 173.527 95.3881 175.226 95.3235C175.349 95.3182 175.471 95.3159 175.594 95.3159C178.326 95.3159 180.656 96.4924 180.767 97.9747ZM175.911 104.537C178.865 104.423 181.586 103.494 183.378 101.991C184.81 100.786 185.537 99.2895 185.425 97.7781C185.164 94.2729 180.492 91.5964 174.988 91.8061C172.033 91.9205 169.312 92.849 167.521 94.3536C166.088 95.5578 165.361 97.0538 165.474 98.5653C165.724 101.94 170.075 104.549 175.302 104.549C175.504 104.549 175.707 104.545 175.911 104.537ZM175.107 93.5648C170.883 93.7276 167.614 95.9226 167.802 98.467C167.991 101.011 171.569 102.941 175.792 102.779C180.014 102.616 183.285 100.421 183.096 97.8764C182.905 95.332 179.329 93.402 175.107 93.5648ZM257.795 262.387L148.546 225.065L146.594 228.284L255.843 265.606L257.795 262.387ZM256.819 263.996L147.57 226.675L256.819 263.996ZM169.631 194.217L165.122 192.879L146.594 228.249L151.102 229.588L169.631 194.217ZM167.377 193.548L148.848 228.919L167.377 193.548ZM230.726 233.106L120.352 191.962L118.233 195.172L228.605 236.318L230.726 233.106ZM229.666 234.712L119.292 193.566L229.666 234.712ZM143.762 161.348L139.355 159.903L118.233 195.075L122.64 196.52L143.762 161.348ZM141.558 160.625L120.437 195.798L141.558 160.625ZM264.597 212.371L260.378 210.834L252.44 223.822L256.66 225.36L264.597 212.371ZM262.488 211.602L254.551 224.591L262.488 211.602ZM263.884 212.102L242.218 203.742L240.093 206.878L261.76 215.238L263.884 212.102ZM241.156 205.31L262.822 213.67L241.156 205.31ZM234.781 181.247L230.485 179.875L222.817 193.545L227.114 194.918L234.781 181.247ZM232.633 180.561L224.966 194.232L232.633 180.561ZM296.793 192.509L258.055 177.834L255.899 181.187L294.636 195.862L296.793 192.509ZM295.715 194.186L256.977 179.511L295.715 194.186ZM251.815 185.171L213.014 170.995L210.981 174.164L249.781 188.341L251.815 185.171ZM211.998 172.579L250.798 186.756L211.998 172.579ZM206.713 179.251L163.821 163.432L161.709 166.586L204.601 182.404L206.713 179.251ZM162.765 165.009L205.657 180.828L162.765 165.009ZM176.787 101.824L172.084 100.452L165.608 115.788L170.312 117.161L176.787 101.824ZM174.435 101.138L167.96 116.474L174.435 101.138ZM192.415 120.385L167.749 112.683L166.026 115.885L190.69 123.587L192.415 120.385ZM166.888 114.284L191.551 121.986L166.888 114.284ZM287.114 104.838L181.143 60.7727L178.864 63.8924L284.836 107.958L287.114 104.838ZM285.975 106.398L180.004 62.3326L285.975 106.398ZM184.115 62.5491L179.818 61.0945L134.965 135.948L139.26 137.402L184.115 62.5491ZM181.966 61.8219L137.112 136.675L181.966 61.8219ZM178.054 148.309L137.134 132.672L134.965 135.903L175.885 151.54L178.054 148.309ZM136.048 134.287L176.97 149.924L136.048 134.287ZM222.744 153.987L182.997 139.155L180.929 142.312L220.676 157.144L222.744 153.987ZM181.962 140.733L221.71 155.566L181.962 140.733ZM268.523 161.27L226.786 146.527L224.808 149.716L266.546 164.46L268.523 161.27ZM225.797 148.121L267.535 162.865L225.797 148.121ZM315.678 135.513L311.443 133.909L291.202 166.163L295.438 167.766L315.678 135.513ZM293.321 166.964L313.561 134.711L293.321 166.964ZM284.961 107.83L281.124 106.332L261.143 134.624L264.979 136.122L284.961 107.83ZM263.061 135.372L283.043 107.082L263.061 135.372ZM213.031 92.8567L208.733 91.3269L161.709 166.451L166.009 167.981L213.031 92.8567ZM163.858 167.216L210.882 92.0918L163.858 167.216ZM234.849 136.609L230.575 135.193L197.914 191.34L202.187 192.756L234.849 136.609ZM200.05 192.049L232.712 135.901L200.05 192.049ZM268.378 161.62L264.037 160.329L225.187 234.739L229.528 236.03L268.378 161.62ZM227.357 235.384L266.207 160.974L227.357 235.384ZM296.793 192.578L292.65 191.254L253.634 261.14L257.776 262.466L296.793 192.578ZM294.721 191.916L255.706 261.803Z" fill="#3048A6"/>
</g>
<defs>
<clipPath id="clip0">
<rect width="450" height="384" fill="white"/>
</clipPath>
</defs>
</svg>